# xmcd
#
# Track frame offsets:
#	150
#	20844
#	36486
#	60342
#	80950
#	115306
#	139724
#	164882
#	187121
#	205984
#	224903
#	248263
#	267191
#	292174
#	307893
#
# Disc length: 4376 seconds
#
# Revision: 1
# Processed by: cddbd v1.5.1PL2 Copyright (c) Steve Scherf et al.
# Submitted via: audiograbber 1.81.02
#
DISCID=f211160f
DTITLE=Various Artist - I Will Follow - 15 powerful songs
DYEAR=2006
DGENRE=Chorus
TTITLE0=Today - Brian Doerksen
TTITLE1=I Will Follow You - Ross Parsley
TTITLE2=Open The Eyes Of My Heart - Paul Baloche
TTITLE3=Just Showed Up For My Own Life - Sara Groves
TTITLE4=Rescue - Newsong
TTITLE5=My Passion - Travis Cottrell
TTITLE6=Who Am I - Casting Crowns
TTITLE7=Healing Rain - Michael W. Smith
TTITLE8=Heart Of Worship - Erin O'Donnell
TTITLE9=Famous One - Sonicflood
TTITLE10=All The Earth Will Sing Your Praises - Paul Baloche
TTITLE11=Here With Me - Mercy Me
TTITLE12=Here I Am To Worship - Eoghen Heaslip
TTITLE13=When It's All Been Said And Done - Don Moen
TTITLE14=You Shine - Brian Doerksen
EXTD=
EXTT0=
EXTT1=
EXTT2=
EXTT3=
EXTT4=
EXTT5=
EXTT6=
EXTT7=
EXTT8=
EXTT9=
EXTT10=
EXTT11=
EXTT12=
EXTT13=
EXTT14=
PLAYORDER=
